<svg xmlns="http://www.w3.org/2000/svg" xmlns:xlink="http://www.w3.org/1999/xlink" zoomAndPan="magnify" preserveAspectRatio="xMidYMid meet" version="1.0" viewBox="81 350.02 645.33 110.55"><defs><g/><clipPath id="f1f6d9c1c9"><path d="M 211 361 L 278 361 L 278 460.578125 L 211 460.578125 Z M 211 361 " clip-rule="nonzero"/></clipPath><clipPath id="3f98c7c835"><path d="M 81 350.023438 L 240 350.023438 L 240 460.578125 L 81 460.578125 Z M 81 350.023438 " clip-rule="nonzero"/></clipPath></defs><g clip-path="url(#f1f6d9c1c9)"><path fill="#ffffff" d="M 250.0625 405.261719 L 228.332031 383.453125 L 239.191406 361.648438 L 274.503906 397.085938 C 279 401.601562 279 408.921875 274.503906 413.4375 L 231.042969 457.050781 C 226.542969 461.566406 219.246094 461.566406 214.75 457.050781 C 210.25 452.535156 210.25 445.214844 214.75 440.703125 Z M 250.0625 405.261719 " fill-opacity="0.56" fill-rule="nonzero"/></g><g clip-path="url(#3f98c7c835)"><path fill="#ffffff" d="M 214.757812 353.429688 C 219.253906 348.914062 226.550781 348.914062 231.050781 353.429688 L 239.199219 361.605469 L 144.132812 457.007812 C 139.632812 461.523438 132.339844 461.523438 127.839844 457.007812 L 119.691406 448.832031 Z M 174.011719 383.414062 L 157.714844 399.765625 L 135.984375 377.957031 L 108.820312 405.21875 L 130.550781 427.027344 L 119.691406 448.832031 L 84.378906 413.394531 C 79.878906 408.878906 79.878906 401.558594 84.378906 397.042969 L 127.839844 353.429688 C 132.339844 348.914062 139.632812 348.914062 144.132812 353.429688 Z M 174.011719 383.414062 " fill-opacity="1" fill-rule="nonzero"/></g><path fill="#ffffff" d="M 573.265625 437.671875 L 573.265625 428.949219 L 564.324219 428.949219 L 564.324219 437.671875 Z M 600.011719 438.246094 C 604.34375 438.246094 608.015625 437.15625 611.023438 434.984375 C 614.03125 432.808594 616.132812 429.902344 617.324219 426.257812 L 617.324219 437.671875 L 624.722656 437.671875 L 624.722656 377.335938 L 617.324219 377.335938 L 617.324219 404.324219 C 616.132812 400.683594 614.03125 397.773438 611.023438 395.601562 C 608.015625 393.425781 604.34375 392.339844 600.011719 392.339844 C 596.054688 392.339844 592.53125 393.261719 589.441406 395.113281 C 586.355469 396.960938 583.929688 399.625 582.167969 403.101562 C 580.40625 406.582031 579.527344 410.65625 579.527344 415.332031 C 579.527344 420.007812 580.40625 424.070312 582.167969 427.523438 C 583.929688 430.972656 586.355469 433.625 589.441406 435.472656 C 592.53125 437.320312 596.054688 438.246094 600.011719 438.246094 Z M 602.125 431.722656 C 597.570312 431.722656 593.925781 430.265625 591.191406 427.359375 C 588.453125 424.449219 587.085938 420.441406 587.085938 415.332031 C 587.085938 410.222656 588.453125 406.214844 591.191406 403.304688 C 593.925781 400.398438 597.570312 398.945312 602.125 398.945312 C 605.050781 398.945312 607.664062 399.609375 609.96875 400.941406 C 612.269531 402.273438 614.074219 404.1875 615.375 406.691406 C 616.675781 409.191406 617.324219 412.070312 617.324219 415.332031 C 617.324219 418.59375 616.675781 421.460938 615.375 423.933594 C 614.074219 426.40625 612.269531 428.324219 609.96875 429.683594 C 607.664062 431.042969 605.050781 431.722656 602.125 431.722656 Z M 656.261719 438.246094 C 660 438.246094 663.359375 437.566406 666.339844 436.207031 C 669.320312 434.847656 671.746094 432.945312 673.617188 430.5 C 675.484375 428.050781 676.691406 425.28125 677.234375 422.183594 L 669.347656 422.183594 C 668.804688 425.226562 667.328125 427.660156 664.917969 429.480469 C 662.507812 431.300781 659.511719 432.210938 655.933594 432.210938 C 651.980469 432.210938 648.632812 430.933594 645.898438 428.378906 C 643.160156 425.824219 641.710938 421.992188 641.546875 416.882812 L 677.234375 416.882812 C 677.449219 415.742188 677.558594 414.382812 677.558594 412.804688 C 677.558594 409.054688 676.703125 405.628906 674.996094 402.53125 C 673.289062 399.433594 670.824219 396.960938 667.601562 395.113281 C 664.375 393.261719 660.597656 392.339844 656.261719 392.339844 C 651.980469 392.339844 648.1875 393.261719 644.878906 395.113281 C 641.574219 396.960938 638.988281 399.625 637.117188 403.101562 C 635.25 406.582031 634.3125 410.65625 634.3125 415.332031 C 634.3125 420.007812 635.25 424.070312 637.117188 427.523438 C 638.988281 430.972656 641.574219 433.625 644.878906 435.472656 C 648.1875 437.320312 651.980469 438.246094 656.261719 438.246094 Z M 670.078125 413.292969 L 641.546875 413.292969 C 641.765625 408.402344 643.253906 404.691406 646.019531 402.164062 C 648.78125 399.636719 652.195312 398.375 656.261719 398.375 C 658.808594 398.375 661.164062 398.917969 663.332031 400.003906 C 665.5 401.089844 667.207031 402.75 668.453125 404.976562 C 669.699219 407.207031 670.242188 409.976562 670.078125 413.292969 Z M 708.851562 437.671875 L 726.328125 392.910156 L 718.363281 392.910156 L 704.546875 429.765625 L 690.5625 392.910156 L 682.597656 392.910156 L 700.074219 437.671875 Z M 708.851562 437.671875 " fill-opacity="0.56" fill-rule="nonzero"/><g fill="#ffffff" fill-opacity="1"><g transform="translate(295.65866, 436.209267)"><g><path d="M 1.589844 -37.421875 L 1.589844 0 L 16.738281 0 L 16.601562 -30.4375 C 16.601562 -32.925781 17.222656 -34.726562 19.023438 -34.449219 C 23.3125 -33.824219 20.960938 -22.34375 29.953125 -22.34375 C 35.832031 -22.34375 39.082031 -25.941406 38.390625 -37.421875 L 36.59375 -37.421875 C 36.59375 -34.863281 35.832031 -32.925781 33.550781 -32.925781 C 30.160156 -32.925781 30.4375 -37.90625 22.34375 -37.90625 C 16.601562 -37.90625 14.734375 -33.132812 10.167969 -32.304688 C 6.363281 -31.613281 3.320312 -32.097656 3.320312 -37.421875 Z M 1.589844 -37.421875 "/></g></g></g><g fill="#ffffff" fill-opacity="1"><g transform="translate(335.36423, 436.209267)"><g><path d="M 21.929688 -37.90625 C 9.546875 -37.90625 1.246094 -30.019531 1.246094 -18.746094 C 1.246094 -7.402344 9.546875 0.484375 21.929688 0.484375 C 34.242188 0.484375 42.542969 -7.402344 42.542969 -18.746094 C 42.542969 -30.019531 34.242188 -37.90625 21.929688 -37.90625 Z M 31.75 -3.183594 C 27.808594 -0.691406 22.621094 -6.226562 16.738281 -15.425781 C 10.859375 -24.695312 8.09375 -31.75 12.035156 -34.308594 C 15.980469 -36.800781 21.167969 -31.265625 27.046875 -21.996094 C 32.859375 -12.796875 35.761719 -5.671875 31.75 -3.183594 Z M 31.75 -3.183594 "/></g></g></g><g fill="#ffffff" fill-opacity="1"><g transform="translate(379.151041, 436.209267)"><g><path d="M 40.257812 0 L 40.257812 -37.421875 L 25.109375 -37.421875 L 25.109375 -7.816406 C 24.972656 -5.464844 24.347656 -3.804688 22.480469 -3.183594 C 18.398438 -1.9375 14.804688 -3.875 16.949219 -18.125 C 17.847656 -24.210938 18.539062 -30.160156 15.21875 -34.378906 C 9.40625 -41.710938 -2.628906 -36.386719 -7.261719 -30.296875 L -6.226562 -29.191406 C -4.011719 -31.335938 -1.730469 -31.890625 0.0703125 -30.296875 C 2.765625 -27.945312 2.421875 -24.074219 1.523438 -18.539062 C -0.207031 -7.746094 5.949219 0.277344 17.914062 0.277344 C 24.765625 0.277344 28.222656 -6.777344 35.347656 -5.328125 C 37.214844 -4.910156 38.53125 -3.457031 38.53125 0 Z M 40.257812 0 "/></g></g></g><g fill="#ffffff" fill-opacity="1"><g transform="translate(421.001001, 436.209267)"><g><path d="M 21.167969 -25.25 L 21.167969 -35.832031 L 31.472656 -35.832031 L 31.472656 -37.421875 L 21.167969 -37.421875 L 21.167969 -46.96875 L 19.507812 -46.96875 C 19.507812 -42.402344 15.773438 -37.421875 6.085938 -37.421875 L 1.246094 -37.421875 L 1.246094 -35.832031 L 6.085938 -35.832031 L 6.085938 -14.59375 C 6.085938 -2.699219 12.242188 0.484375 18.125 0.484375 C 24.210938 0.484375 24.554688 -5.050781 27.945312 -5.050781 C 31.058594 -5.050781 31.128906 -3.113281 31.128906 -0.0703125 L 32.71875 -0.0703125 C 33.6875 -7.679688 33.132812 -17.222656 24.140625 -17.222656 C 17.914062 -17.222656 16.1875 -8.855469 11.414062 -8.855469 C 8.578125 -8.855469 7.816406 -10.792969 8.09375 -12.660156 C 8.785156 -17.085938 21.167969 -16.324219 21.167969 -25.25 Z M 21.167969 -25.25 "/></g></g></g><g fill="#ffffff" fill-opacity="1"><g transform="translate(455.311044, 436.209267)"><g><path d="M 1.589844 0 L 16.738281 0 L 16.738281 -23.796875 C 16.738281 -28.707031 12.589844 -28.707031 8.921875 -29.261719 C 4.980469 -29.882812 2.699219 -31.058594 1.589844 -32.511719 Z M 18.054688 -39.152344 C 18.054688 -44.0625 14.527344 -47.453125 9.199219 -47.453125 C 3.875 -47.453125 0.347656 -44.0625 0.347656 -39.152344 C 0.347656 -34.308594 3.875 -30.921875 9.199219 -30.921875 C 14.527344 -30.921875 18.054688 -34.308594 18.054688 -39.152344 Z M 18.054688 -39.152344 "/></g></g></g><g fill="#ffffff" fill-opacity="1"><g transform="translate(473.642016, 436.209267)"><g><path d="M 1.589844 -37.421875 L 1.589844 0 L 16.738281 0 L 16.738281 -28.984375 C 16.808594 -31.75 17.363281 -33.824219 19.367188 -34.449219 C 23.449219 -35.761719 27.046875 -33.757812 24.902344 -19.574219 C 24.003906 -13.488281 23.3125 -7.539062 26.632812 -3.320312 C 32.511719 4.011719 44.480469 -1.3125 49.113281 -7.402344 L 48.074219 -8.507812 C 45.863281 -6.292969 43.578125 -5.8125 41.78125 -7.402344 C 39.082031 -9.753906 39.5 -13.628906 40.328125 -19.160156 C 42.058594 -29.953125 35.902344 -37.90625 23.933594 -37.90625 C 18.609375 -37.90625 14.871094 -33.339844 10.792969 -32.375 C 6.777344 -31.40625 3.320312 -31.820312 3.320312 -37.421875 Z M 1.589844 -37.421875 "/></g></g></g><g fill="#ffffff" fill-opacity="1"><g transform="translate(515.561138, 436.209267)"><g><path d="M 15.773438 -16.878906 C 40.675781 -22.964844 40.121094 -37.90625 21.859375 -37.90625 C 9.476562 -37.90625 1.175781 -30.019531 1.175781 -18.746094 C 1.175781 -7.402344 9.476562 0.484375 21.859375 0.484375 C 32.375 0.484375 36.730469 -3.042969 42.609375 -9.753906 C 42.195312 -10.167969 41.78125 -10.652344 41.296875 -11.066406 C 33.339844 -2.28125 24.695312 -2.765625 16.671875 -15.425781 C 16.324219 -15.910156 16.046875 -16.394531 15.773438 -16.878906 Z M 21.652344 -30.019531 C 25.25 -24.210938 20.683594 -19.507812 14.871094 -18.332031 C 10.308594 -26.148438 8.4375 -32.027344 11.96875 -34.308594 C 14.59375 -35.96875 18.746094 -34.726562 21.652344 -30.019531 Z M 21.652344 -30.019531 "/></g></g></g></svg>